<?xml version="1.0" encoding="utf-8"?>
<!-- Generator: Adobe Illustrator 25.0.0, SVG Export Plug-In . SVG Version: 6.00 Build 0)  -->
<svg version="1.1" id="Camada_1" xmlns="http://www.w3.org/2000/svg" xmlns:xlink="http://www.w3.org/1999/xlink" x="0px" y="0px"
	 viewBox="0 0 110 110" style="enable-background:new 0 0 110 110;" xml:space="preserve">
<style type="text/css">
	.st0{fill:none;stroke:#6030FF;stroke-width:5;stroke-miterlimit:10;}
	.st1{fill:#6030FF;}
	.st2{fill:#FFFFFF;}
</style>
<g id="circle_out">
	<path class="st0" d="M107.5,55c0,8.6-2.1,16.8-5.8,24c-1.7,3.3-3.7,6.4-6,9.2C86.1,100,71.4,107.5,55,107.5C26,107.5,2.5,84,2.5,55
		S26,2.5,55,2.5S107.5,26,107.5,55z"/>
</g>
<g id="body">
	<path class="st1" d="M101.5,55c0,7.5-1.8,14.5-4.9,20.8c-1.6,3.3-3.7,6.4-6,9.1C82,95,69.3,101.5,55,101.5
		C29.3,101.5,8.5,80.7,8.5,55S29.3,8.5,55,8.5S101.5,29.3,101.5,55z"/>
</g>
<g id="circle_in">
	<ellipse class="st2" cx="55" cy="55" rx="6.5" ry="6.5"/>
</g>
<g id="second">
	<path class="st2" d="M57,18v27h-4V18c0-1.1,0.9-2,2-2S57,16.9,57,18z"/>
</g>
<g id="minute">
	<path class="st2" d="M96.6,75.8c-1.6,3.3-3.7,6.4-6,9.1C82,79.6,73.5,74.3,65,69c-2.7-1.6-3.5-5.1-1.9-7.6c1.7-2.6,5.3-3.3,7.9-1.4
		C79.5,65.3,88.1,70.5,96.6,75.8z"/>
</g>
</svg>
