<?xml version="1.0" encoding="utf-8"?>
<!-- Generator: Adobe Illustrator 25.0.0, SVG Export Plug-In . SVG Version: 6.00 Build 0)  -->
<svg version="1.1" id="Camada_1" xmlns="http://www.w3.org/2000/svg" xmlns:xlink="http://www.w3.org/1999/xlink" x="0px" y="0px"
	 viewBox="0 0 14.8 13.5" style="enable-background:new 0 0 14.8 13.5;" xml:space="preserve">
<style type="text/css">
	.st0{fill:#FF6D00;}
	.st1{fill-rule:evenodd;clip-rule:evenodd;fill:#FF6D00;}
</style>
<g id="Camada_1_1_">
	<path class="st0" d="M8.9,8.8H2.7L1.5,7.6l1.2-1.2h6.2V8.8 M10.4,8.8H9.7V6.4h2.3c0.2,0,0.5,0.2,0.5,0.5v1.5c0,0.2-0.2,0.5-0.5,0.5
		C11.8,8.8,10.4,8.8,10.4,8.8z"/>
</g>
<g id="Camada_2_1_">
	<g id="Symbols_2_">
		<g id="Header-v3_2_" transform="translate(-334.000000, -66.000000)">
			<g id="Group_2_" transform="translate(336.000000, 68.000000)">
				<path id="Path_10_" class="st0" d="M7.7,7v0.7C7.7,8.3,7.2,8.4,6.6,8.5v1.6l4.3,0.1V8.5c-0.6-0.1-1.1-0.2-1.1-0.8V7H7.7z"/>
				<path id="Path_9_" class="st1" d="M7.7,7v0.7C7.7,8.3,7.2,8.4,6.6,8.5v1.6l4.3,0.1V8.5c-0.6-0.1-1.1-0.2-1.1-0.8V7H7.7z"/>
				<path id="Path_8_" class="st0" d="M0.5,8.4V10l4.3,0.1V8.5c-0.3,0-0.5,0-0.6-0.2C4,8.2,4,8,4.2,7.8l3.6-5.4v1.8h2.1v-4.5H7.3
					L2.2,7.4C1.6,8.2,1.5,8.5,0.5,8.4z"/>
				<path id="Path_4_" class="st1" d="M0.5,8.4V10l4.3,0.1V8.5c-0.3,0-0.5,0-0.6-0.2C4,8.2,4,8,4.2,7.8l3.6-5.4v1.8h2.1v-4.5H7.3
					L2.2,7.4C1.6,8.2,1.5,8.5,0.5,8.4"/>
				<polygon id="Path_3_" class="st1" points="4.7,3.6 7,3.6 6.1,4.8 4,4.8 				"/>
			</g>
		</g>
	</g>
</g>
</svg>
