<?xml version="1.0" encoding="utf-8"?>
<!-- Generator: Adobe Illustrator 25.0.0, SVG Export Plug-In . SVG Version: 6.00 Build 0)  -->
<svg version="1.1" id="Camada_1" xmlns="http://www.w3.org/2000/svg" xmlns:xlink="http://www.w3.org/1999/xlink" x="0px" y="0px"
	 viewBox="0 0 14.8 13.5" style="enable-background:new 0 0 14.8 13.5;" xml:space="preserve">
<style type="text/css">
	.st0{fill:#FF6D00;}
	.st1{fill-rule:evenodd;clip-rule:evenodd;fill:#FF6D00;}
</style>
<g id="Camada_1_1_">
	<path class="st0" d="M9.6,9.3h-8L0,7.7l1.6-1.6h8V9.3 M11.6,9.3h-0.9V6.1h3c0.3,0,0.6,0.3,0.6,0.6v2c0,0.3-0.3,0.6-0.6,0.6
		C13.4,9.3,11.6,9.3,11.6,9.3z"/>
</g>
<g id="Camada_2_1_">
	<g id="Symbols_2_">
		<g id="Header-v3_2_" transform="translate(-334.000000, -66.000000)">
			<g id="Group_2_" transform="translate(336.000000, 68.000000)">
				<path id="Path_10_" class="st0" d="M8.7,7.5v0.9C8.6,9.2,8,9.3,7.2,9.4v2.1l5.6,0.1V9.5c-0.8-0.1-1.4-0.2-1.4-1.1V7.5L8.7,7.5z"
					/>
				<path id="Path_9_" class="st1" d="M8.7,7.5v0.9C8.6,9.2,8,9.3,7.2,9.4v2.1l5.6,0.1V9.5c-0.8-0.1-1.4-0.2-1.4-1.1V7.5L8.7,7.5z"
					/>
				<path id="Path_8_" class="st0" d="M-0.7,9.3v2.1l5.6,0.1V9.4c-0.4,0-0.7,0-0.8-0.2C3.9,9,3.9,8.8,4.1,8.5l4.6-7v2.3h2.7V-2H8.2
					L1.5,8C0.8,9.1,0.6,9.4-0.7,9.3z"/>
				<path id="Path_4_" class="st1" d="M-0.7,9.3v2.1l5.6,0.1V9.4c-0.4,0-0.7,0-0.8-0.2C3.9,9,3.9,8.8,4.1,8.5l4.6-7v2.3h2.7V-2H8.2
					L1.5,8C0.8,9.1,0.6,9.4-0.7,9.3"/>
				<polygon id="Path_3_" class="st1" points="4.8,3.1 7.7,3.1 6.6,4.7 3.8,4.6 				"/>
			</g>
		</g>
	</g>
</g>
</svg>
